<svg xmlns="http://www.w3.org/2000/svg" width="21.731" height="22.152" viewBox="0 0 21.731 22.152">
  <path id="Icon_ionic-logo-google" data-name="Icon ionic-logo-google" d="M25.26,12.751l-.112-.474H14.842v4.362H21a6.163,6.163,0,0,1-6.029,4.634,7.211,7.211,0,0,1-4.852-1.933A6.927,6.927,0,0,1,8.05,14.45,7.145,7.145,0,0,1,10.08,9.566,6.9,6.9,0,0,1,14.9,7.68a6.287,6.287,0,0,1,4.1,1.6l3.1-3.084a10.968,10.968,0,0,0-7.3-2.812h0a11.289,11.289,0,0,0-7.99,3.249,11.243,11.243,0,0,0-3.153,7.824,11.13,11.13,0,0,0,3.031,7.7,11.562,11.562,0,0,0,8.336,3.382,10.282,10.282,0,0,0,7.489-3.148,11.057,11.057,0,0,0,2.876-7.659A12.754,12.754,0,0,0,25.26,12.751Z" transform="translate(-3.656 -3.382)" fill="#fff"/>
</svg>
