<svg xmlns="http://www.w3.org/2000/svg" width="12.867" height="12.867" viewBox="0 0 12.867 12.867">
  <path id="Icon_awesome-paint-brush" data-name="Icon awesome-paint-brush" d="M4.2,7.774A2.543,2.543,0,0,0,1.754,9.591a.384.384,0,0,1-.367.251c-.279,0-1.142-.7-1.388-.863,0,2.07.953,3.888,3.217,3.888a2.906,2.906,0,0,0,3.217-3.02,2.177,2.177,0,0,0-.024-.229L4.2,7.774ZM11.507,0A1.535,1.535,0,0,0,10.5.413C5.359,5,4.825,5.11,4.825,6.461a2.327,2.327,0,0,0,.219.973l1.6,1.336a2.312,2.312,0,0,0,.563.076c1.561,0,2.466-1.143,5.307-6.445a2.586,2.586,0,0,0,.349-1.156A1.309,1.309,0,0,0,11.507,0Z" transform="translate(0.001)" fill="#fff"/>
</svg>
