<svg xmlns="http://www.w3.org/2000/svg" width="11.806" height="11.806" viewBox="0 0 11.806 11.806">
  <path id="Icon_metro-sun" data-name="Icon metro-sun" d="M11.366,7.545a3.179,3.179,0,1,0,3.179,3.179,3.182,3.182,0,0,0-3.179-3.179Zm0,5.449a2.27,2.27,0,1,1,2.27-2.27A2.27,2.27,0,0,1,11.366,12.994Zm0-6.357a.454.454,0,0,0,.454-.454V5.274a.454.454,0,1,0-.908,0v.908A.454.454,0,0,0,11.366,6.636Zm0,8.174a.454.454,0,0,0-.454.454v.908a.454.454,0,0,0,.908,0v-.908A.454.454,0,0,0,11.366,14.81ZM14.9,7.833l.642-.642a.454.454,0,0,0-.642-.642l-.642.642a.454.454,0,0,0,.642.642Zm-7.063,5.78-.642.642a.454.454,0,0,0,.642.642l.642-.642a.454.454,0,0,0-.642-.642Zm-.555-2.89a.454.454,0,0,0-.454-.454H5.917a.454.454,0,1,0,0,.908h.908A.454.454,0,0,0,7.279,10.723Zm9.536-.454h-.908a.454.454,0,1,0,0,.908h.908a.454.454,0,0,0,0-.908ZM7.834,7.833a.454.454,0,1,0,.642-.642l-.642-.642a.454.454,0,0,0-.642.642ZM14.9,13.613a.454.454,0,1,0-.642.642l.642.642a.454.454,0,1,0,.642-.642Z" transform="translate(-5.463 -4.82)" fill="#fff"/>
</svg>
